<svg xmlns="http://www.w3.org/2000/svg" viewBox="0 0 512 512" style="height: 512px; width: 512px;"><defs><filter id="shadow-1" height="300%" width="300%" x="-100%" y="-100%"><feFlood flood-color="rgba(68, 255, 75, 1)" result="flood"></feFlood><feComposite in="flood" in2="SourceGraphic" operator="atop" result="composite"></feComposite><feGaussianBlur in="composite" stdDeviation="8" result="blur"></feGaussianBlur><feOffset dx="0" dy="0" result="offset"></feOffset><feComposite in="SourceGraphic" in2="offset" operator="over"></feComposite></filter><radialGradient id="gradient-0"><stop offset="0%" stop-color="#417505" stop-opacity="1"></stop><stop offset="100%" stop-color="#231818" stop-opacity="1"></stop></radialGradient><linearGradient id="gradient-1"><stop offset="0%" stop-color="#417505" stop-opacity="1"></stop><stop offset="100%" stop-color="#b8e986" stop-opacity="1"></stop></linearGradient></defs><polygon points="469.04,379,256,502,42.96,379,42.96,133,256,10,469.04,133" fill="url(#gradient-0)" stroke="#2e5500" stroke-opacity="1" stroke-width="10"></polygon><g class="" transform="translate(0,0)" style="touch-action: none;"><path d="M257.617 20.717c-7.083-.011-14.242.448-21.469 1.347-31.2 3.87-59.077 16.346-82.566 39.51-18.59 18.323-30.93 40.783-33.8 68.274-3.409 32.99 6.985 61.16 28.118 84.191 6.792 7.386 9.795 14.582 9.608 25.03-.297 16.428.974 32.882 1.65 50.308 21.027-12.421 41.214-24.384 61.674-36.48 12.176 21.378 24.055 42.27 36.479 63.976 12.148-21.517 23.894-42.3 35.826-63.244 19.753 11.8 39.24 23.46 59.373 35.557.514-16.94 1.733-32.799 1.246-48.6-.353-11.07 1.813-19.676 10.256-26.223 2.677-2.083 4.707-5.356 6.845-8.308 20.568-28.606 27.712-60.348 17.16-95.498-9.77-32.502-30.771-54.695-57.699-70.362-23.066-13.405-47.403-19.44-72.7-19.478zm82.799 105.207c17.942-.134 26.164 11.07 22.404 30.474-4.353 22.379-22.92 38.723-42.674 37.668-21.38-1.139-38.695-18.755-41.025-41.892-.186-1.811.435-4.598 1.6-5.547 10.658-8.605 45.704-20.593 59.695-20.703zm-165.154.03c13.717.865 29.494 7.548 45.084 14.91 2.297 1.107 4.408 2.785 6.763 3.464 5.847 1.651 6.088 6.113 5.25 11.31-3.76 22.217-23.004 39.484-42.785 38.401-22.433-1.218-39.592-19.269-41.162-43.351-1.083-16.59 6.766-24.952 26.85-24.735zm80.615 56.556c7.44 18.214 14.42 35.235 21.646 52.93h-43.187c7.144-17.588 14.152-34.637 21.54-52.93zm-16.172 141.84c-.146.319-.293.633-.42.976-2.894 7.981-6.197 15.856-9.984 23.543-8.334 16.832-17.293 33.365-25.71 50.09-6.63 13.125-10.336 26.845-7.74 41.783 5.71 32.582 36.67 54.827 69.63 49.844 39.886-6.033 59.48-41.103 48.603-74.902-4.357-13.586-11.283-26.469-17.941-39.159-8.46-16.062-16.528-32.279-23.061-49.11-2.348 4.152-4.698 8.311-7.057 12.491l-8.658 15.328-8.742-15.279c-2.993-5.225-5.962-10.422-8.92-15.605zm.053 40.97c3.709.032 3.735 27.583 1.642 40.026-2.166 12.555.13 24.084 10.495 32.69 15.02 12.475 35.426 9.66 46.654-6.386.514-.68.975-1.355 1.49-2.06.404.083.756.164 1.162.219-.89 4.763-1.217 9.633-2.652 14.261-6.33 20.702-25.515 33.068-47.977 31.174-19.404-1.624-35.833-17.753-39.24-37.996-1.841-10.579 1.218-20.05 5.654-29.17 6.602-13.61 14.018-26.817 20.647-40.375.81-1.655 1.518-2.388 2.125-2.383z" fill="url(#gradient-1)" stroke="#93dc52" stroke-opacity="1" stroke-width="8" filter="url(#shadow-1)"></path></g><g class="" transform="translate(-224,105)" style="touch-action: none;"><g transform="translate(16, 16) scale(0.5, 0.5) rotate(0, 128, 128)"><circle cx="128" cy="128" r="128" fill="#2b2020" fill-opacity="1"></circle><circle stroke="#c02c2c" stroke-opacity="1" fill="#2b2020" fill-opacity="1" stroke-width="18" cx="128" cy="128" r="101"></circle><path fill="#c02c2c" fill-opacity="1" d="M128 58c-32 0-64 16-64 37.838C64 154 96 142 96 142l-6 24h76l-6-24s32 12 32-52c0-16-32-32-64-32zm-26 38a16 16 0 0 1 16 16 16 16 0 0 1-16 16 16 16 0 0 1-16-16 16 16 0 0 1 16-16zm52 0a16 16 0 0 1 16 16 16 16 0 0 1-16 16 16 16 0 0 1-16-16 16 16 0 0 1 16-16zm-26 34l10 26h-20l10-26zm-28 51.002v17.996h56v-17.996h-56z"></path></g></g></svg>